<?xml version="1.0" encoding="UTF-8"?> <svg xmlns="http://www.w3.org/2000/svg" xmlns:xlink="http://www.w3.org/1999/xlink" width="480" height="137.86" viewBox="0 0 480 137.86"><defs><clipPath id="a"><path d="M66.05,40.09c.17-12.7-8.3-20.47-17.52-26.26L38.9,19.21c2,1.13,4,2.29,5.85,3.52H21.08a34.84,34.84,0,0,0-7.15,6.2H52.15A17.54,17.54,0,0,1,56,35.85H10.27a15.65,15.65,0,0,0-.45,3.53A14.48,14.48,0,0,0,10,42.05H56.42A16,16,0,0,1,53.64,49H13a29.3,29.3,0,0,0,6.38,6.16H47.51C42.89,58.69,37,61.74,30.89,64.88,15.83,72.65.24,80.7,0,98.07c-.17,12.23,7.49,19.67,15.87,25.2l9.53-5.33c-1.84-1.07-3.56-2.15-5.14-3.24H43a39.21,39.21,0,0,0,7.59-6.2H13.27a16.43,16.43,0,0,1-3.45-6.92H54.65a15.27,15.27,0,0,0,.65-4.22,16.11,16.11,0,0,0-.1-2H9.75a16.47,16.47,0,0,1,3.16-6.92H52.63a27,27,0,0,0-6-6.2H19.53a125.55,125.55,0,0,1,15.62-9C50.22,65.5,65.8,57.46,66.05,40.09" style="fill:none"></path></clipPath><clipPath id="b"><rect y="0.02" width="480" height="137.82" style="fill:none"></rect></clipPath><clipPath id="c"><rect x="0.01" y="-0.04" width="480.05" height="137.88" style="fill:none"></rect></clipPath><linearGradient id="d" x1="-2524.68" y1="863.93" x2="-2524.59" y2="863.93" gradientTransform="matrix(761.68, 0, 0, -761.68, 1923011.67, 658107.87)" gradientUnits="userSpaceOnUse"><stop offset="0" stop-color="#00a5e8"></stop><stop offset="0.23" stop-color="#00a5e8"></stop><stop offset="0.45" stop-color="#0089c9"></stop><stop offset="0.49" stop-color="#0c7cc1"></stop><stop offset="0.6" stop-color="#2562af"></stop><stop offset="0.71" stop-color="#384fa3"></stop><stop offset="0.83" stop-color="#42449b"></stop><stop offset="0.95" stop-color="#464099"></stop><stop offset="1" stop-color="#464099"></stop></linearGradient><clipPath id="e"><path d="M28,60.53C18.45,55.27,9.68,49.17,9.82,39.38c.16-11.62,12.55-18,25.67-24.78,7-3.64,14.18-7.32,19.83-12L42.58,0c-3.5,2.13-7.39,4.13-11.34,6.17C16.17,14,.59,22,.34,39.38c-.18,12.92,8.58,20.73,18,26.54L28,60.53" style="fill:none"></path></clipPath><linearGradient id="h" x1="-2524.02" y1="863.28" x2="-2523.93" y2="863.28" gradientTransform="matrix(634, 0, 0, -634, 1600235.48, 547389.17)" gradientUnits="userSpaceOnUse"><stop offset="0" stop-color="#00a5e2"></stop><stop offset="0.23" stop-color="#00a5e2"></stop><stop offset="0.45" stop-color="#0089c9"></stop><stop offset="0.49" stop-color="#0c7cc1"></stop><stop offset="0.6" stop-color="#2562af"></stop><stop offset="0.71" stop-color="#384fa3"></stop><stop offset="0.83" stop-color="#42449b"></stop><stop offset="0.95" stop-color="#464099"></stop><stop offset="1" stop-color="#464099"></stop></linearGradient><clipPath id="i"><path d="M48.63,72l-9.55,5.34C49,83,55.42,88.79,55.3,97.36c-.16,11.62-12.56,18-25.68,24.79-7.53,3.89-15.19,7.84-21,13l12.12,2.7c4-2.55,8.5-4.89,13.14-7.29C49,122.78,64.53,114.73,64.77,97.36,64.94,85,57.12,77.53,48.63,72" style="fill:none"></path></clipPath><linearGradient id="l" x1="-2524.24" y1="864.57" x2="-2524.15" y2="864.57" gradientTransform="matrix(647.62, 0, 0, -647.62, 1634757.18, 559983.81)" xlink:href="#h"></linearGradient></defs><title>Artboard 1</title><g style="clip-path:url(#a)"><g style="clip-path:url(#b)"><g style="clip-path:url(#c)"><rect x="0.01" y="-0.04" width="480.05" height="137.88" style="fill:url(#d)"></rect></g></g></g><g style="clip-path:url(#e)"><g style="clip-path:url(#b)"><g style="clip-path:url(#c)"><rect x="0.01" y="-0.04" width="480.05" height="137.88" style="fill:url(#h)"></rect></g></g></g><g style="clip-path:url(#i)"><g style="clip-path:url(#b)"><g style="clip-path:url(#c)"><rect x="0.01" y="-0.04" width="480.04" height="137.88" style="fill:url(#l)"></rect></g></g></g><g style="clip-path:url(#b)"><g style="clip-path:url(#c)"><polyline points="448.53 73.96 461.13 100.34 444.59 100.34 438.41 85.78 448.53 73.96" style="fill:#3b3b3c"></polyline><path d="M99.3,81a10.52,10.52,0,0,0,3.53,4.52,15,15,0,0,0,5.51,2.41,31.62,31.62,0,0,0,7,.72,21.31,21.31,0,0,0,5.29-.67,16.46,16.46,0,0,0,4.8-2,11.18,11.18,0,0,0,3.52-3.46,9.24,9.24,0,0,0,1.38-5.14,6.61,6.61,0,0,0-1.76-4.75,15.56,15.56,0,0,0-4.58-3.19A40,40,0,0,0,117.55,67c-2.39-.68-4.8-1.38-7.22-2.13a58.59,58.59,0,0,1-7.28-2.68,24.91,24.91,0,0,1-6.34-4,18.54,18.54,0,0,1-4.52-6,20.07,20.07,0,0,1-1.71-8.71,22.13,22.13,0,0,1,2.76-11.4,23.39,23.39,0,0,1,7.17-7.66,31.4,31.4,0,0,1,10-4.35,45.84,45.84,0,0,1,11.3-1.4,44.53,44.53,0,0,1,11.41,1.4,25.74,25.74,0,0,1,9.38,4.52,22.41,22.41,0,0,1,6.39,8,26.71,26.71,0,0,1,2.37,11.79H134.8a12.7,12.7,0,0,0-.93-5.64,9.59,9.59,0,0,0-3-3.75,12.15,12.15,0,0,0-4.58-2.06,25.05,25.05,0,0,0-10.52-.12,14.39,14.39,0,0,0-4.47,1.68,9.5,9.5,0,0,0-3.2,3.07,8.58,8.58,0,0,0-1.21,4.7,6.3,6.3,0,0,0,2.15,4.86,18.25,18.25,0,0,0,5.18,3.24,36.2,36.2,0,0,0,6.23,2l5.18,1.17a64.9,64.9,0,0,1,8.49,2.85,23.2,23.2,0,0,1,6.67,4.19,17.52,17.52,0,0,1,4.36,6.26,23.66,23.66,0,0,1,1.54,9A23.93,23.93,0,0,1,143.79,88a24.74,24.74,0,0,1-7.5,8.16A31.07,31.07,0,0,1,126,100.73a47.84,47.84,0,0,1-11.35,1.4q-16.55,0-24.64-6.82T81.88,73.85H98.31a16,16,0,0,0,1,7.1" style="fill:#3b3b3c"></path><path d="M174.49,42.56,173,49.71l.22.23a15.84,15.84,0,0,1,7.22-6.82A23.24,23.24,0,0,1,190.26,41q10.35,0,16,6.14t5.63,16.66a52.39,52.39,0,0,1-1.88,14,37.77,37.77,0,0,1-5.73,12.18,29.52,29.52,0,0,1-9.65,8.61,27.65,27.65,0,0,1-13.72,3.24,22.42,22.42,0,0,1-4.91-.56,19.18,19.18,0,0,1-4.63-1.67,15.42,15.42,0,0,1-3.86-2.86,11.47,11.47,0,0,1-2.59-4.07h-.33l-5.95,27.93H143.07l16.32-78h15.1m3,12.8a20.23,20.23,0,0,0-5.35,6.09,29.9,29.9,0,0,0-3.2,8,34.32,34.32,0,0,0-1,8c0,3.8.91,6.83,2.75,9.11s4.67,3.4,8.49,3.4a12.72,12.72,0,0,0,7.72-2.34,19.5,19.5,0,0,0,5.29-5.93,27.65,27.65,0,0,0,3.09-7.82,35.45,35.45,0,0,0,1-8,16.64,16.64,0,0,0-.72-4.92,12,12,0,0,0-2.09-4.08A10.48,10.48,0,0,0,189.93,54,10.6,10.6,0,0,0,185.07,53,12.29,12.29,0,0,0,177.47,55.36Z" style="fill:#3b3b3c"></path><path d="M229.61,76.31v2.35a11.13,11.13,0,0,0,3.09,8.16q3.09,3.12,9.48,3.12a11.2,11.2,0,0,0,4.14-.72,12.28,12.28,0,0,0,3.19-1.84,13.52,13.52,0,0,0,2.43-2.58c.7-1,1.34-1.9,1.93-2.79h15.65a40.83,40.83,0,0,1-4.41,8.61,24.07,24.07,0,0,1-14.28,9.94A42.92,42.92,0,0,1,240,101.79a32.85,32.85,0,0,1-10.42-1.56,20.9,20.9,0,0,1-8-4.75,21.55,21.55,0,0,1-5.13-7.88,30.27,30.27,0,0,1-1.82-10.95,40.66,40.66,0,0,1,2.21-13.36,36.82,36.82,0,0,1,6.23-11.4A29.84,29.84,0,0,1,232.92,44,28.68,28.68,0,0,1,246,41a35.7,35.7,0,0,1,10.86,1.56,22.35,22.35,0,0,1,8.38,4.75,21.78,21.78,0,0,1,5.4,7.94,29,29,0,0,1,1.93,11,50.13,50.13,0,0,1-.88,9.06h-42a5.44,5.44,0,0,0-.11,1m27.51-15.48a11.13,11.13,0,0,0-1.49-4A7.79,7.79,0,0,0,252.44,54,12.25,12.25,0,0,0,246.92,53a15.78,15.78,0,0,0-5.84,1,14.79,14.79,0,0,0-4.41,2.68,15.48,15.48,0,0,0-3.14,3.91,29.37,29.37,0,0,0-2.15,4.7h26.13A25.13,25.13,0,0,0,257.12,60.83Z" style="fill:#3b3b3c"></path><path d="M289.59,76.31v2.35a11.12,11.12,0,0,0,3.08,8.16q3.09,3.12,9.48,3.12a11.16,11.16,0,0,0,4.14-.72,12.34,12.34,0,0,0,3.2-1.84,13.47,13.47,0,0,0,2.42-2.58c.7-1,1.34-1.9,1.93-2.79H329.5a40.83,40.83,0,0,1-4.41,8.61,24.15,24.15,0,0,1-14.28,9.94A43,43,0,0,1,300,101.79a32.89,32.89,0,0,1-10.42-1.56,21,21,0,0,1-8-4.75,21.68,21.68,0,0,1-5.13-7.88,30.27,30.27,0,0,1-1.82-10.95,40.92,40.92,0,0,1,2.21-13.36A37,37,0,0,1,283,51.89,29.94,29.94,0,0,1,292.89,44,28.68,28.68,0,0,1,306,41a35.7,35.7,0,0,1,10.86,1.56,22.28,22.28,0,0,1,8.38,4.75,21.53,21.53,0,0,1,5.4,7.94,29,29,0,0,1,1.93,11,50.13,50.13,0,0,1-.88,9.06h-42a4.69,4.69,0,0,0-.11,1m27.5-15.48a11.31,11.31,0,0,0-1.48-4,7.88,7.88,0,0,0-3.2-2.85A12.23,12.23,0,0,0,306.9,53a15.8,15.8,0,0,0-5.85,1,14.79,14.79,0,0,0-4.41,2.68,15.48,15.48,0,0,0-3.14,3.91,31.23,31.23,0,0,0-2.15,4.7h26.13A25.13,25.13,0,0,0,317.09,60.83Z" style="fill:#3b3b3c"></path><path d="M378.11,20.55q16.65,0,25,8.1t8.38,23A63,63,0,0,1,408.65,71a43.53,43.53,0,0,1-8.54,15.47,39.06,39.06,0,0,1-14.22,10.23,49.9,49.9,0,0,1-19.9,3.69H333.13l16.54-79.79h28.44m-11.35,65a26.82,26.82,0,0,0,11.74-2.46,24.74,24.74,0,0,0,8.6-6.71,30,30,0,0,0,5.29-9.83,38.5,38.5,0,0,0,1.82-12,30.46,30.46,0,0,0-.94-7.88,16,16,0,0,0-3-6.09,13.81,13.81,0,0,0-5.35-4A19.91,19.91,0,0,0,377,35.3H364L353.42,85.59Z" style="fill:#3b3b3c"></path><polyline points="452.86 42.56 470.39 42.56 421.11 100.34 403.47 100.34 452.86 42.56" style="fill:#0272ba"></polyline><polyline points="428.16 65.83 416.92 42.56 433.68 42.56 438.16 54.08 428.16 65.83" style="fill:#3b3b3c"></polyline><path d="M472,39.59a4,4,0,0,1,2-3.47,3.93,3.93,0,0,1,2-.54,4,4,0,0,1,3.47,2,4,4,0,0,1,0,4,4,4,0,0,1-3.49,2,3.93,3.93,0,0,1-2-.55,4,4,0,0,1-1.45-1.47,4,4,0,0,1-.52-2m.56,0A3.45,3.45,0,0,0,476,43a3.49,3.49,0,0,0,3-1.72,3.38,3.38,0,0,0,.47-1.73,3.33,3.33,0,0,0-.46-1.72,3.46,3.46,0,0,0-1.26-1.26,3.26,3.26,0,0,0-1.73-.47,3.33,3.33,0,0,0-1.72.46A3.46,3.46,0,0,0,473,37.86,3.35,3.35,0,0,0,472.54,39.59Zm5.08-1a1.3,1.3,0,0,1-.23.75,1.33,1.33,0,0,1-.64.49L478,42h-.89L476,40.08h-.72V42h-.79V37.22h1.39a2,2,0,0,1,1.3.34A1.3,1.3,0,0,1,477.62,38.62Zm-2.32.8h.58a1,1,0,0,0,.68-.22.68.68,0,0,0,.26-.56.64.64,0,0,0-.23-.57,1.15,1.15,0,0,0-.72-.18h-.57Z" style="fill:#3b3b3c"></path></g></g></svg> 